<?xml version="1.0" encoding="utf-8"?>
<!-- Generator: Adobe Illustrator 22.1.0, SVG Export Plug-In . SVG Version: 6.00 Build 0)  -->
<svg version="1.0" id="_x31_" xmlns="http://www.w3.org/2000/svg" xmlns:xlink="http://www.w3.org/1999/xlink" x="0px" y="0px"
	 width="182.8px" height="48.1px" viewBox="0 0 182.8 48.1" style="enable-background:new 0 0 182.8 48.1;" xml:space="preserve">
<style type="text/css">
	.st0{fill:#37424A;}
	.st1{fill:#00877C;}
</style>
<g>
	<path class="st0" d="M80.1,48v-7.6h1.5V48H80.1z M88,48l-3-4.7V48h-1.5v-7.6h1.3l3,4.7v-4.7h1.5V48H88z M94,48h-1.1l-2.5-7.6h1.5
		l1.5,5l1.5-5h1.6L94,48z M97.6,48v-7.6h5v1.3h-3.5v1.8h3v1.3h-3v1.9h3.5V48H97.6z M108.7,48l-3-4.7V48h-1.5v-7.6h1.3l3,4.7v-4.7
		h1.5V48H108.7z M114.8,41.7V48h-1.5v-6.3h-2v-1.3h5.5v1.3H114.8z M118.1,48v-7.6h1.5V48H118.1z M126,48l-3-4.7V48h-1.5v-7.6h1.3
		l3,4.7v-4.7h1.5V48H126z M134,47.2c-0.6,0.7-1.3,0.9-2.2,0.9c-0.9,0-1.5-0.3-2-0.8c-0.8-0.8-0.8-1.6-0.8-3.1s0-2.3,0.8-3.1
		c0.5-0.5,1.2-0.8,2-0.8c1.8,0,2.7,1.2,2.9,2.4h-1.5c-0.2-0.7-0.6-1.1-1.4-1.1c-0.4,0-0.7,0.2-1,0.4c-0.3,0.3-0.4,0.7-0.4,2.1
		s0.1,1.8,0.4,2.2c0.2,0.2,0.5,0.4,1,0.4c0.5,0,0.8-0.2,1.1-0.4c0.2-0.3,0.3-0.6,0.3-1V45h-1.4v-1.3h2.9v1.1
		C134.7,46,134.5,46.7,134,47.2z M140,40.9v3.1h3.5v0.5H140V48h-0.6v-7.6h4.6v0.5H140z M149.7,47.4c-0.5,0.5-1.1,0.7-1.9,0.7
		c-0.8,0-1.4-0.3-1.9-0.7c-0.7-0.7-0.8-1.3-0.8-3.2c0-1.9,0.1-2.4,0.8-3.2c0.5-0.5,1.1-0.7,1.9-0.7c0.8,0,1.4,0.3,1.9,0.7
		c0.7,0.7,0.8,1.3,0.8,3.2C150.5,46.1,150.4,46.7,149.7,47.4z M149.3,41.4c-0.4-0.4-0.9-0.6-1.4-0.6c-0.6,0-1.1,0.2-1.4,0.6
		c-0.5,0.5-0.6,1.2-0.6,2.8c0,1.6,0,2.2,0.6,2.8c0.4,0.4,0.9,0.6,1.4,0.6c0.6,0,1.1-0.2,1.4-0.6c0.5-0.5,0.6-1.2,0.6-2.8
		C149.9,42.6,149.8,42,149.3,41.4z M157.1,48l-1.8-3.5h-2.1V48h-0.6v-7.6h2.9c1.2,0,2.2,0.7,2.2,2c0,1.1-0.7,1.9-1.8,2.1l1.8,3.5
		H157.1z M155.5,40.9h-2.3V44h2.3c1,0,1.7-0.5,1.7-1.5C157.1,41.4,156.4,40.9,155.5,40.9z M162.6,48v-7.6h0.6v7.1h4.1V48H162.6z
		 M168.9,48v-7.6h0.6V48H168.9z M172.5,40.9v3.1h3.5v0.5h-3.5V48h-0.6v-7.6h4.6v0.5H172.5z M178.2,48v-7.6h4.6v0.5h-4.1v3h3.5v0.5
		h-3.5v3.1h4.1V48H178.2z M71,10.9h6.8v21.8h-5V18.1l-6.4,14.7l-6.8-14.7v14.7h-4.7V10.9h6.7l4.8,11.3L71,10.9z M95.6,17.4
		c0-4.3-3.3-6.8-7.3-6.8c-3.9,0-8.2,2.3-8.2,6.8c0,3.9,4.3,5.9,6.7,6.5c1.3,0.4,4.7,0.7,4.7,3.1c0,2.3-2.4,2.9-4.1,2.9
		c-2.3,0-3.6-1.6-3.4-4h-4.5c-0.2,5.4,3.5,7.5,7.9,7.6c5,0.1,8.8-2,8.8-6.8c0-4.8-4.3-5.6-7.7-6.7c-1.3-0.4-3.7-0.8-3.7-3
		c0-1.9,1.6-2.8,3.3-2.8c2.1,0,3.2,1,3.4,3.2H95.6 M105,10.9h-7v21.8h7c5.8,0,11.7-3.3,11.7-10.9C116.7,14.3,110.8,10.9,105,10.9z
		 M104.7,28.7l-1.9,0v0V14.9h1.9c5.3,0,7.2,3.5,7.2,6.9S110,28.7,104.7,28.7z"/>
	<path id="XMLID_26_" class="st1" d="M10.9,10.9c0-6,4.9-10.9,10.9-10.9c6,0,10.9,4.9,10.9,10.9H10.9z M10.9,32.8
		c0-6,4.9-10.9,10.9-10.9c-6,0-10.9-4.9-10.9-10.9C4.9,10.9,0,15.8,0,21.8C0,27.9,4.9,32.8,10.9,32.8z M10.9,32.8
		c0,6,4.9,10.9,10.9,10.9c6,0,10.9-4.9,10.9-10.9H10.9z M21.8,21.8c6,0,10.9,4.9,10.9,10.9c6,0,10.9-4.9,10.9-10.9
		c0-6-4.9-10.9-10.9-10.9C32.8,17,27.9,21.8,21.8,21.8z"/>
</g>
</svg>
